<svg width="126" height="137" viewBox="0 0 126 137" fill="none" xmlns="http://www.w3.org/2000/svg">
<path d="M64 0C65.23 0.4 66.43 0.97 67.7 1.19C82 3.69 89.47 13 89.07 27.89C88.72 40.93 79.74 50.45 66.29 51.96C62.84 52.35 59.37 52.52 55.57 52.82C55.57 62.28 55.32 71.41 55.79 80.5C55.88 82.24 58.79 83.83 60.21 85.3C50.73 85.3 40.32 85.3 29.91 85.3C35.7 84.62 35.33 80.51 35.31 76.23C35.21 53.57 35.16 30.9 35.36 8.24C35.4 3.46 33.89 1.36 29.05 1.95C27.74 2.11 26.39 2 25.05 1.97C8.79 1.56 5.41 14.66 8.23 25.29C9.6 30.45 13.17 32.43 20.13 31.88C18.59 30.61 17.39 29.74 16.32 28.72C13.55 26.09 12.62 22.51 14.92 19.76C16.64 17.71 20.08 16.21 22.8 16.12C26.52 16 28.56 19.1 28.95 22.78C29.68 29.71 23.64 35.11 16.02 34.46C7.53 33.75 2.6 28.76 0 21C0 19.33 0 17.67 0 16C2.66 7.99 8.36 3.41 16.4 1.47C18.27 1.01 20.13 0.49 22 0C36 0 50 0 64 0ZM56.08 3.28C56.08 18.06 55.97 32.51 56.26 46.95C56.29 48.21 58.8 50.28 60.35 50.48C66 51.22 69.72 47.24 70 39.83C70.33 31.21 70.36 22.55 69.98 13.93C69.59 4.89 65.87 2.14 56.08 3.28Z" fill="white"/>
<path d="M91.6001 110.52C91.2001 104.81 84.86 100.64 78.02 101.34C72.09 101.95 68.03 105.77 66.52 112.16C64.08 122.45 70.9201 132.19 81.7901 133.91C94.1501 135.87 104.3 129.65 105.19 119.57C105.88 111.7 100.1 104.55 90.31 100.49C84.83 98.21 79.3501 95.73 74.2901 92.67C66.2001 87.77 61.3201 80.6 62.3801 70.73C63.4401 60.89 69.8601 55.51 78.8901 52.88C86.7501 50.59 94.5601 50.11 102.25 53.84C107.63 56.45 113.01 57.76 118.11 50.77C118.11 61.42 118.11 70.6 118.11 79.79C117.74 79.85 117.37 79.9 117.01 79.96C116.68 78.82 116.29 77.7 116.04 76.54C114.04 67.63 109.09 60.77 101.38 55.98C94.8901 51.94 87.5601 53.06 84.5701 58.3C81.3001 64.04 83.8401 71.78 90.4701 75.15C96.8401 78.39 103.33 81.43 109.94 84.14C119.79 88.17 125.06 95.44 125.59 105.87C126.1 115.83 121.69 123.87 113.49 129.15C101.56 136.83 88.3701 138.41 74.6801 134.76C72.0101 134.05 69.4001 132.64 67.1201 131.04C59.7201 125.84 56.7701 116.85 59.7901 109.58C62.7901 102.35 71.3 98.19 80.1 99.2C85.78 99.86 90.21 102.34 93.34 106.99C96.04 110.99 95.9501 115.54 93.2301 119.18C91.5901 121.37 88.1701 123.48 85.6401 123.38C83.1301 123.29 79.78 120.88 78.56 118.56C77.59 116.72 78.5901 113.01 79.9701 110.98C81.8301 108.26 85.0901 107.44 88.4401 109.15C89.4101 109.68 90.4701 110.05 91.6001 110.52Z" fill="white"/>
</svg>
